# Created using SwiftConverter

# Vertex Array
v 0.000 -5.000 -331.000
v -0.975 -4.904 -331.000
v -0.975 -4.904 -0.000
v -1.913 -4.619 -331.000
v -2.778 -4.157 -331.000
v -2.778 -4.157 -0.000
v -1.913 -4.619 -0.000
v -3.536 -3.536 -331.000
v -4.157 -2.778 -331.000
v -4.157 -2.778 -0.000
v -4.619 -1.913 -331.000
v -4.904 -0.975 -331.000
v -4.904 -0.975 -0.000
v -4.619 -1.913 -0.000
v -3.536 -3.536 -0.000
v -5.000 0.000 -331.000
v -4.904 0.975 -331.000
v -4.904 0.975 0.000
v -4.619 1.913 -331.000
v -4.157 2.778 -331.000
v -4.157 2.778 0.000
v -4.619 1.913 0.000
v -3.536 3.536 -331.000
v -2.778 4.157 -331.000
v -2.778 4.157 0.000
v -1.913 4.619 -331.000
v -0.975 4.904 -331.000
v -0.975 4.904 0.000
v -1.913 4.619 0.000
v -3.536 3.536 0.000
v -5.000 0.000 0.000
v 0.000 -5.000 0.000
v 0.000 5.000 -331.000
v 0.975 -4.904 -0.000
v 0.975 4.904 -331.000
v 0.975 4.904 0.000
v 1.913 4.619 -331.000
v 2.778 4.157 -331.000
v 2.778 4.157 0.000
v 1.913 4.619 0.000
v 3.536 3.536 -331.000
v 4.157 2.778 -331.000
v 4.157 2.778 0.000
v 4.619 1.913 -331.000
v 4.904 0.975 -331.000
v 4.904 0.975 0.000
v 4.619 1.913 0.000
v 3.536 3.536 0.000
v 5.000 0.000 -331.000
v 4.904 -0.975 -331.000
v 4.904 -0.975 -0.000
v 4.619 -1.913 -331.000
v 4.157 -2.778 -331.000
v 4.157 -2.778 -0.000
v 4.619 -1.913 -0.000
v 3.536 -3.536 -331.000
v 2.778 -4.157 -331.000
v 2.778 -4.157 -0.000
v 1.913 -4.619 -331.000
v 0.975 -4.904 -331.000
v 1.913 -4.619 -0.000
v 3.536 -3.536 -0.000
v 5.000 -0.000 -0.000
v 0.000 5.000 0.000

# Normal Array
vn 0.098 0.995 0.000
vn 0.471 0.882 0.000
vn 0.290 0.957 0.000
vn 0.773 0.634 0.000
vn 0.957 0.290 0.000
vn 0.882 0.471 0.000
vn 0.634 0.773 0.000
vn 0.995 -0.098 -0.000
vn 0.882 -0.471 -0.000
vn 0.957 -0.290 -0.000
vn 0.634 -0.773 -0.000
vn 0.290 -0.957 -0.000
vn 0.471 -0.882 -0.000
vn 0.773 -0.634 -0.000
vn 0.995 0.098 0.000
vn 0.098 0.995 0.000
vn 0.471 0.882 0.000
vn 0.290 0.957 0.000
vn 0.773 0.634 0.000
vn 0.957 0.290 0.000
vn 0.882 0.471 0.000
vn 0.634 0.773 0.000
vn 0.995 -0.098 -0.000
vn 0.882 -0.471 -0.000
vn 0.957 -0.290 -0.000
vn 0.634 -0.773 -0.000
vn 0.290 -0.957 -0.000
vn 0.471 -0.882 -0.000
vn 0.773 -0.634 -0.000
vn 0.995 0.098 0.000
vn 0.098 -0.995 -0.000
vn -0.098 0.995 0.000
vn -0.098 -0.995 -0.000
vn -0.471 -0.882 -0.000
vn -0.290 -0.957 -0.000
vn -0.773 -0.634 -0.000
vn -0.957 -0.290 -0.000
vn -0.882 -0.471 -0.000
vn -0.634 -0.773 -0.000
vn -0.995 0.098 0.000
vn -0.882 0.471 0.000
vn -0.957 0.290 0.000
vn -0.634 0.773 0.000
vn -0.290 0.957 0.000
vn -0.471 0.882 0.000
vn -0.773 0.634 0.000
vn -0.995 -0.098 -0.000
vn -0.098 -0.995 -0.000
vn -0.471 -0.882 -0.000
vn -0.290 -0.957 -0.000
vn -0.773 -0.634 -0.000
vn -0.957 -0.290 -0.000
vn -0.882 -0.471 -0.000
vn -0.634 -0.773 -0.000
vn -0.995 0.098 0.000
vn -0.882 0.471 0.000
vn -0.957 0.290 0.000
vn -0.634 0.773 0.000
vn -0.290 0.957 0.000
vn -0.471 0.882 0.000
vn -0.773 0.634 0.000
vn -0.995 -0.098 -0.000
vn -0.098 0.995 0.000
vn 0.098 -0.995 -0.000
vn 0.000 -0.000 1.000
vn 0.000 0.000 1.000
vn 0.000 0.000 1.000
vn 0.000 -0.000 1.000
vn 0.000 -0.000 1.000
vn 0.000 0.000 1.000
vn 0.000 0.000 1.000
vn -0.000 -0.000 1.000
vn 0.000 0.000 1.000
vn -0.000 -0.000 1.000
vn -0.000 -0.000 1.000
vn 0.000 0.000 1.000
vn 0.000 -0.000 1.000
vn 0.000 0.000 1.000
vn 0.000 0.000 1.000
vn 0.000 0.000 1.000
vn 0.000 0.000 1.000
vn 0.000 0.000 1.000
vn 0.000 0.000 1.000
vn 0.000 0.000 1.000
vn 0.000 0.000 1.000
vn 0.000 0.000 1.000
vn 0.000 0.000 1.000
vn -0.000 0.000 1.000
vn 0.000 0.000 1.000
vn -0.000 0.000 1.000
vn -0.000 0.000 1.000
vn -0.000 0.000 1.000
vn -0.000 0.000 1.000
vn 0.000 0.000 1.000
vn 0.000 0.000 -1.000
vn -0.000 0.000 -1.000
vn -0.000 0.000 -1.000
vn 0.000 0.000 -1.000
vn -0.000 0.000 -1.000
vn 0.000 0.000 -1.000
vn 0.000 0.000 -1.000
vn 0.000 0.000 -1.000
vn -0.000 0.000 -1.000
vn 0.000 0.000 -1.000
vn -0.000 0.000 -1.000
vn 0.000 0.000 -1.000
vn 0.000 -0.000 -1.000
vn -0.000 0.000 -1.000
vn -0.000 0.000 -1.000
vn 0.000 0.000 -1.000
vn -0.000 0.000 -1.000
vn 0.000 0.000 -1.000
vn 0.000 0.000 -1.000
vn -0.000 0.000 -1.000
vn -0.000 0.000 -1.000
vn 0.000 0.000 -1.000
vn 0.000 0.000 -1.000
vn 0.000 0.000 -1.000
vn -0.000 0.000 -1.000
vn -0.000 0.000 -1.000
vn 0.000 0.000 -1.000
vn 0.000 0.000 -1.000
vn 0.000 0.000 -1.000
vn -0.000 0.000 -1.000

# Facets
f 1//1 2//1 3//1
f 4//2 5//2 6//2
f 2//3 4//3 7//3
f 8//4 9//4 10//4
f 11//5 12//5 13//5
f 9//6 11//6 14//6
f 5//7 8//7 15//7
f 16//8 17//8 18//8
f 19//9 20//9 21//9
f 17//10 19//10 22//10
f 23//11 24//11 25//11
f 26//12 27//12 28//12
f 24//13 26//13 29//13
f 20//14 23//14 30//14
f 12//15 16//15 31//15
f 3//16 32//16 1//16
f 6//17 7//17 4//17
f 3//18 2//18 7//18
f 10//19 15//19 8//19
f 13//20 14//20 11//20
f 10//21 9//21 14//21
f 6//22 5//22 15//22
f 18//23 31//23 16//23
f 21//24 22//24 19//24
f 18//25 17//25 22//25
f 25//26 30//26 23//26
f 28//27 29//27 26//27
f 25//28 24//28 29//28
f 21//29 20//29 30//29
f 13//30 12//30 31//30
f 27//31 33//31 28//31
f 1//32 32//32 34//32
f 33//33 35//33 36//33
f 37//34 38//34 39//34
f 35//35 37//35 40//35
f 41//36 42//36 43//36
f 44//37 45//37 46//37
f 42//38 44//38 47//38
f 38//39 41//39 48//39
f 49//40 50//40 51//40
f 52//41 53//41 54//41
f 50//42 52//42 55//42
f 56//43 57//43 58//43
f 59//44 60//44 34//44
f 57//45 59//45 61//45
f 53//46 56//46 62//46
f 45//47 49//47 63//47
f 36//48 64//48 33//48
f 39//49 40//49 37//49
f 36//50 35//50 40//50
f 43//51 48//51 41//51
f 46//52 47//52 44//52
f 43//53 42//53 47//53
f 39//54 38//54 48//54
f 51//55 63//55 49//55
f 54//56 55//56 52//56
f 51//57 50//57 55//57
f 58//58 62//58 56//58
f 34//59 61//59 59//59
f 58//60 57//60 61//60
f 54//61 53//61 62//61
f 46//62 45//62 63//62
f 60//63 1//63 34//63
f 33//64 64//64 28//64
f 57//65 56//65 59//65
f 1//66 60//66 59//66
f 1//67 59//67 56//67
f 50//68 49//68 52//68
f 52//69 49//69 56//69
f 56//70 53//70 52//70
f 41//71 8//71 56//71
f 2//72 1//72 4//72
f 8//73 5//73 4//73
f 4//74 1//74 8//74
f 9//75 8//75 11//75
f 16//76 11//76 8//76
f 1//77 56//77 8//77
f 16//78 12//78 11//78
f 49//79 41//79 56//79
f 44//80 41//80 49//80
f 42//81 41//81 44//81
f 8//82 41//82 23//82
f 37//83 33//83 41//83
f 35//84 33//84 37//84
f 37//85 41//85 38//85
f 23//86 41//86 33//86
f 23//87 20//87 19//87
f 17//88 16//88 19//88
f 23//89 19//89 16//89
f 26//90 23//90 33//90
f 24//91 23//91 26//91
f 16//92 8//92 23//92
f 27//93 26//93 33//93
f 44//94 49//94 45//94
f 61//95 62//95 58//95
f 61//96 34//96 32//96
f 62//97 61//97 32//97
f 55//98 63//98 51//98
f 62//99 63//99 55//99
f 55//100 54//100 62//100
f 62//101 15//101 48//101
f 7//102 32//102 3//102
f 7//103 6//103 15//103
f 15//104 32//104 7//104
f 14//105 15//105 10//105
f 15//106 14//106 31//106
f 15//107 62//107 32//107
f 14//108 13//108 31//108
f 62//109 48//109 63//109
f 63//110 48//110 47//110
f 47//111 48//111 43//111
f 30//112 48//112 15//112
f 48//113 64//113 40//113
f 40//114 64//114 36//114
f 39//115 48//115 40//115
f 64//116 48//116 30//116
f 22//117 21//117 30//117
f 22//118 31//118 18//118
f 31//119 22//119 30//119
f 64//120 30//120 29//120
f 29//121 30//121 25//121
f 30//122 15//122 31//122
f 64//123 29//123 28//123
f 46//124 63//124 47//124

# Thank you for using SwiftConverter

